<svg xmlns="http://www.w3.org/2000/svg" viewBox="0 0 940 470" width="940" height="470" role="img">
<rect width="940" height="470" fill="#ffffff"/>
<text x="24.0" y="34.0" font-family="'DejaVu Sans','Helvetica Neue',Helvetica,Arial,sans-serif" font-size="16" fill="#1c1c1c" text-anchor="start">Peak RSS against fixture size — s3-fast-list, with Swath and rclone for reference</text>
<rect x="96.0" y="62.0" width="624.0" height="330.0" fill="none" stroke="#d8d8d8" stroke-width="1"/>
<line x1="96.0" y1="62.0" x2="720.0" y2="62.0" stroke="#d8d8d8" stroke-width="1"/>
<text x="96.0" y="410.0" font-family="'DejaVu Sans','Helvetica Neue',Helvetica,Arial,sans-serif" font-size="10" fill="#5c5c5c" text-anchor="middle">0</text>
<text x="88.0" y="396.0" font-family="'DejaVu Sans','Helvetica Neue',Helvetica,Arial,sans-serif" font-size="10" fill="#5c5c5c" text-anchor="end">0</text>
<line x1="96.0" y1="144.5" x2="720.0" y2="144.5" stroke="#d8d8d8" stroke-width="1"/>
<text x="252.0" y="410.0" font-family="'DejaVu Sans','Helvetica Neue',Helvetica,Arial,sans-serif" font-size="10" fill="#5c5c5c" text-anchor="middle">1.75e+07</text>
<text x="88.0" y="313.5" font-family="'DejaVu Sans','Helvetica Neue',Helvetica,Arial,sans-serif" font-size="10" fill="#5c5c5c" text-anchor="end">5e+06</text>
<line x1="96.0" y1="227.0" x2="720.0" y2="227.0" stroke="#d8d8d8" stroke-width="1"/>
<text x="408.0" y="410.0" font-family="'DejaVu Sans','Helvetica Neue',Helvetica,Arial,sans-serif" font-size="10" fill="#5c5c5c" text-anchor="middle">3.5e+07</text>
<text x="88.0" y="231.0" font-family="'DejaVu Sans','Helvetica Neue',Helvetica,Arial,sans-serif" font-size="10" fill="#5c5c5c" text-anchor="end">1e+07</text>
<line x1="96.0" y1="309.5" x2="720.0" y2="309.5" stroke="#d8d8d8" stroke-width="1"/>
<text x="564.0" y="410.0" font-family="'DejaVu Sans','Helvetica Neue',Helvetica,Arial,sans-serif" font-size="10" fill="#5c5c5c" text-anchor="middle">5.25e+07</text>
<text x="88.0" y="148.5" font-family="'DejaVu Sans','Helvetica Neue',Helvetica,Arial,sans-serif" font-size="10" fill="#5c5c5c" text-anchor="end">1.5e+07</text>
<line x1="96.0" y1="392.0" x2="720.0" y2="392.0" stroke="#d8d8d8" stroke-width="1"/>
<text x="720.0" y="410.0" font-family="'DejaVu Sans','Helvetica Neue',Helvetica,Arial,sans-serif" font-size="10" fill="#5c5c5c" text-anchor="middle">7e+07</text>
<text x="88.0" y="66.0" font-family="'DejaVu Sans','Helvetica Neue',Helvetica,Arial,sans-serif" font-size="10" fill="#5c5c5c" text-anchor="end">2e+07</text>
<circle cx="132.4" cy="388.1" r="5" fill="#2f6f9f" fill-opacity="0.85"/>
<circle cx="132.4" cy="388.5" r="5" fill="#2f6f9f" fill-opacity="0.85"/>
<circle cx="688.0" cy="389.9" r="5" fill="#2f6f9f" fill-opacity="0.85"/>
<circle cx="132.4" cy="390.8" r="5" fill="#2f6f9f" fill-opacity="0.85"/>
<circle cx="216.7" cy="389.0" r="5" fill="#2f6f9f" fill-opacity="0.85"/>
<circle cx="216.7" cy="389.1" r="5" fill="#2f6f9f" fill-opacity="0.85"/>
<circle cx="132.4" cy="388.3" r="5" fill="#2f6f9f" fill-opacity="0.85"/>
<circle cx="216.7" cy="389.0" r="5" fill="#2f6f9f" fill-opacity="0.85"/>
<circle cx="132.4" cy="387.9" r="5" fill="#2f6f9f" fill-opacity="0.85"/>
<circle cx="132.4" cy="388.2" r="5" fill="#2f6f9f" fill-opacity="0.85"/>
<path d="M126.4,384.8 l12,12 M138.4,384.8 l-12,12" stroke="#b03a3a" stroke-width="2.4" fill="none"/>
<circle cx="132.4" cy="388.4" r="5" fill="#2f6f9f" fill-opacity="0.85"/>
<circle cx="132.4" cy="390.8" r="5" fill="#2f6f9f" fill-opacity="0.85"/>
<circle cx="132.4" cy="389.8" r="5" fill="#2f6f9f" fill-opacity="0.85"/>
<circle cx="132.4" cy="385.7" r="5" fill="#2f6f9f" fill-opacity="0.85"/>
<circle cx="132.4" cy="385.7" r="5" fill="#2f6f9f" fill-opacity="0.85"/>
<circle cx="132.4" cy="388.1" r="5" fill="#2f6f9f" fill-opacity="0.85"/>
<circle cx="216.7" cy="389.2" r="5" fill="#2f6f9f" fill-opacity="0.85"/>
<circle cx="216.7" cy="389.0" r="5" fill="#2f6f9f" fill-opacity="0.85"/>
<circle cx="132.4" cy="388.1" r="5" fill="#2f6f9f" fill-opacity="0.85"/>
<circle cx="132.4" cy="388.4" r="5" fill="#2f6f9f" fill-opacity="0.85"/>
<circle cx="132.4" cy="388.2" r="5" fill="#2f6f9f" fill-opacity="0.85"/>
<circle cx="132.4" cy="388.4" r="5" fill="#2f6f9f" fill-opacity="0.85"/>
<circle cx="216.7" cy="389.1" r="5" fill="#2f6f9f" fill-opacity="0.85"/>
<circle cx="132.4" cy="377.9" r="5" fill="#b4643c" fill-opacity="0.85"/>
<circle cx="132.4" cy="377.9" r="5" fill="#b4643c" fill-opacity="0.85"/>
<circle cx="132.4" cy="377.9" r="5" fill="#b4643c" fill-opacity="0.85"/>
<circle cx="216.7" cy="349.5" r="5" fill="#b4643c" fill-opacity="0.85"/>
<circle cx="688.0" cy="204.8" r="5" fill="#b4643c" fill-opacity="0.85"/>
<circle cx="216.7" cy="348.8" r="5" fill="#b4643c" fill-opacity="0.85"/>
<circle cx="132.4" cy="378.6" r="5" fill="#b4643c" fill-opacity="0.85"/>
<circle cx="132.4" cy="378.6" r="5" fill="#b4643c" fill-opacity="0.85"/>
<circle cx="132.4" cy="378.6" r="5" fill="#b4643c" fill-opacity="0.85"/>
<circle cx="132.4" cy="377.7" r="5" fill="#b4643c" fill-opacity="0.85"/>
<circle cx="132.4" cy="378.7" r="5" fill="#b4643c" fill-opacity="0.85"/>
<path d="M682.0,248.3 l12,12 M694.0,248.3 l-12,12" stroke="#b03a3a" stroke-width="2.4" fill="none"/>
<circle cx="216.7" cy="348.6" r="5" fill="#b4643c" fill-opacity="0.85"/>
<path d="M682.0,198.9 l12,12 M694.0,198.9 l-12,12" stroke="#b03a3a" stroke-width="2.4" fill="none"/>
<circle cx="132.4" cy="378.9" r="5" fill="#b4643c" fill-opacity="0.85"/>
<path d="M126.4,386.0 l12,12 M138.4,386.0 l-12,12" stroke="#b03a3a" stroke-width="2.4" fill="none"/>
<circle cx="132.4" cy="391.1" r="5" fill="#b4643c" fill-opacity="0.85"/>
<path d="M126.4,386.0 l12,12 M138.4,386.0 l-12,12" stroke="#b03a3a" stroke-width="2.4" fill="none"/>
<circle cx="132.4" cy="379.1" r="5" fill="#b4643c" fill-opacity="0.85"/>
<circle cx="216.7" cy="348.7" r="5" fill="#b4643c" fill-opacity="0.85"/>
<circle cx="132.4" cy="378.6" r="5" fill="#b4643c" fill-opacity="0.85"/>
<circle cx="132.4" cy="378.0" r="5" fill="#b4643c" fill-opacity="0.85"/>
<circle cx="132.4" cy="378.9" r="5" fill="#b4643c" fill-opacity="0.85"/>
<circle cx="132.4" cy="378.0" r="5" fill="#b4643c" fill-opacity="0.85"/>
<circle cx="132.4" cy="379.0" r="5" fill="#b4643c" fill-opacity="0.85"/>
<circle cx="132.4" cy="378.7" r="5" fill="#b4643c" fill-opacity="0.85"/>
<circle cx="132.4" cy="378.0" r="5" fill="#b4643c" fill-opacity="0.85"/>
<circle cx="216.7" cy="348.3" r="5" fill="#b4643c" fill-opacity="0.85"/>
<circle cx="132.4" cy="377.5" r="5" fill="#b4643c" fill-opacity="0.85"/>
<circle cx="132.4" cy="377.9" r="5" fill="#b4643c" fill-opacity="0.85"/>
<circle cx="132.4" cy="377.8" r="5" fill="#b4643c" fill-opacity="0.85"/>
<circle cx="132.4" cy="378.1" r="5" fill="#b4643c" fill-opacity="0.85"/>
<circle cx="132.4" cy="377.9" r="5" fill="#b4643c" fill-opacity="0.85"/>
<circle cx="216.7" cy="349.9" r="5" fill="#b4643c" fill-opacity="0.85"/>
<circle cx="132.4" cy="378.7" r="5" fill="#b4643c" fill-opacity="0.85"/>
<circle cx="132.4" cy="377.9" r="5" fill="#b4643c" fill-opacity="0.85"/>
<circle cx="132.4" cy="377.6" r="5" fill="#b4643c" fill-opacity="0.85"/>
<circle cx="132.4" cy="377.9" r="5" fill="#b4643c" fill-opacity="0.85"/>
<circle cx="132.4" cy="377.4" r="5" fill="#b4643c" fill-opacity="0.85"/>
<circle cx="132.4" cy="377.4" r="5" fill="#b4643c" fill-opacity="0.85"/>
<circle cx="132.4" cy="378.0" r="5" fill="#b4643c" fill-opacity="0.85"/>
<circle cx="216.7" cy="371.2" r="5" fill="#4f8a5b" fill-opacity="0.85"/>
<circle cx="216.7" cy="381.2" r="5" fill="#4f8a5b" fill-opacity="0.85"/>
<circle cx="132.4" cy="381.0" r="5" fill="#4f8a5b" fill-opacity="0.85"/>
<circle cx="132.4" cy="379.1" r="5" fill="#4f8a5b" fill-opacity="0.85"/>
<circle cx="216.7" cy="382.5" r="5" fill="#4f8a5b" fill-opacity="0.85"/>
<circle cx="132.4" cy="382.9" r="5" fill="#4f8a5b" fill-opacity="0.85"/>
<circle cx="688.0" cy="379.7" r="5" fill="#4f8a5b" fill-opacity="0.85"/>
<circle cx="216.7" cy="382.5" r="5" fill="#4f8a5b" fill-opacity="0.85"/>
<circle cx="132.4" cy="387.7" r="5" fill="#4f8a5b" fill-opacity="0.85"/>
<circle cx="132.4" cy="386.9" r="5" fill="#4f8a5b" fill-opacity="0.85"/>
<circle cx="132.4" cy="385.9" r="5" fill="#4f8a5b" fill-opacity="0.85"/>
<circle cx="216.7" cy="375.7" r="5" fill="#4f8a5b" fill-opacity="0.85"/>
<circle cx="216.7" cy="382.6" r="5" fill="#4f8a5b" fill-opacity="0.85"/>
<circle cx="132.4" cy="387.6" r="5" fill="#4f8a5b" fill-opacity="0.85"/>
<circle cx="132.4" cy="380.0" r="5" fill="#4f8a5b" fill-opacity="0.85"/>
<circle cx="132.4" cy="380.4" r="5" fill="#4f8a5b" fill-opacity="0.85"/>
<circle cx="132.4" cy="382.0" r="5" fill="#4f8a5b" fill-opacity="0.85"/>
<circle cx="132.4" cy="387.6" r="5" fill="#4f8a5b" fill-opacity="0.85"/>
<circle cx="132.4" cy="384.5" r="5" fill="#4f8a5b" fill-opacity="0.85"/>
<circle cx="216.7" cy="382.6" r="5" fill="#4f8a5b" fill-opacity="0.85"/>
<circle cx="132.4" cy="387.6" r="5" fill="#4f8a5b" fill-opacity="0.85"/>
<circle cx="216.7" cy="381.9" r="5" fill="#4f8a5b" fill-opacity="0.85"/>
<circle cx="216.7" cy="382.8" r="5" fill="#4f8a5b" fill-opacity="0.85"/>
<circle cx="132.4" cy="387.4" r="5" fill="#4f8a5b" fill-opacity="0.85"/>
<circle cx="132.4" cy="386.3" r="5" fill="#4f8a5b" fill-opacity="0.85"/>
<circle cx="132.4" cy="381.2" r="5" fill="#4f8a5b" fill-opacity="0.85"/>
<circle cx="132.4" cy="382.7" r="5" fill="#4f8a5b" fill-opacity="0.85"/>
<circle cx="216.7" cy="382.9" r="5" fill="#4f8a5b" fill-opacity="0.85"/>
<circle cx="132.4" cy="385.6" r="5" fill="#4f8a5b" fill-opacity="0.85"/>
<circle cx="132.4" cy="387.4" r="5" fill="#4f8a5b" fill-opacity="0.85"/>
<circle cx="132.4" cy="380.6" r="5" fill="#4f8a5b" fill-opacity="0.85"/>
<circle cx="132.4" cy="382.6" r="5" fill="#4f8a5b" fill-opacity="0.85"/>
<circle cx="132.4" cy="379.7" r="5" fill="#4f8a5b" fill-opacity="0.85"/>
<circle cx="132.4" cy="386.9" r="5" fill="#4f8a5b" fill-opacity="0.85"/>
<circle cx="688.0" cy="383.6" r="5" fill="#4f8a5b" fill-opacity="0.85"/>
<circle cx="132.4" cy="385.1" r="5" fill="#4f8a5b" fill-opacity="0.85"/>
<circle cx="132.4" cy="386.9" r="5" fill="#4f8a5b" fill-opacity="0.85"/>
<circle cx="132.4" cy="387.7" r="5" fill="#4f8a5b" fill-opacity="0.85"/>
<circle cx="216.7" cy="382.0" r="5" fill="#4f8a5b" fill-opacity="0.85"/>
<circle cx="132.4" cy="387.3" r="5" fill="#4f8a5b" fill-opacity="0.85"/>
<circle cx="132.4" cy="388.0" r="5" fill="#4f8a5b" fill-opacity="0.85"/>
<circle cx="216.7" cy="370.0" r="5" fill="#4f8a5b" fill-opacity="0.85"/>
<circle cx="216.7" cy="377.5" r="5" fill="#4f8a5b" fill-opacity="0.85"/>
<circle cx="132.4" cy="387.2" r="5" fill="#4f8a5b" fill-opacity="0.85"/>
<circle cx="132.4" cy="380.5" r="5" fill="#4f8a5b" fill-opacity="0.85"/>
<circle cx="216.7" cy="383.0" r="5" fill="#4f8a5b" fill-opacity="0.85"/>
<circle cx="216.7" cy="382.0" r="5" fill="#4f8a5b" fill-opacity="0.85"/>
<circle cx="132.4" cy="382.3" r="5" fill="#4f8a5b" fill-opacity="0.85"/>
<circle cx="132.4" cy="387.7" r="5" fill="#4f8a5b" fill-opacity="0.85"/>
<circle cx="216.7" cy="378.9" r="5" fill="#4f8a5b" fill-opacity="0.85"/>
<circle cx="688.0" cy="381.5" r="5" fill="#4f8a5b" fill-opacity="0.85"/>
<circle cx="132.4" cy="386.8" r="5" fill="#4f8a5b" fill-opacity="0.85"/>
<circle cx="132.4" cy="387.7" r="5" fill="#4f8a5b" fill-opacity="0.85"/>
<circle cx="216.7" cy="379.5" r="5" fill="#4f8a5b" fill-opacity="0.85"/>
<circle cx="132.4" cy="385.8" r="5" fill="#4f8a5b" fill-opacity="0.85"/>
<circle cx="132.4" cy="386.5" r="5" fill="#4f8a5b" fill-opacity="0.85"/>
<circle cx="132.4" cy="387.7" r="5" fill="#4f8a5b" fill-opacity="0.85"/>
<circle cx="132.4" cy="386.9" r="5" fill="#4f8a5b" fill-opacity="0.85"/>
<circle cx="132.4" cy="385.4" r="5" fill="#4f8a5b" fill-opacity="0.85"/>
<text x="746.0" y="66.0" font-family="'DejaVu Sans','Helvetica Neue',Helvetica,Arial,sans-serif" font-size="11" fill="#1c1c1c" text-anchor="start">tool</text>
<circle cx="752.0" cy="82.0" r="5" fill="#2f6f9f"/>
<text x="766.0" y="86.0" font-family="'DejaVu Sans','Helvetica Neue',Helvetica,Arial,sans-serif" font-size="11" fill="#5c5c5c" text-anchor="start">rclone</text>
<circle cx="752.0" cy="102.0" r="5" fill="#b4643c"/>
<text x="766.0" y="106.0" font-family="'DejaVu Sans','Helvetica Neue',Helvetica,Arial,sans-serif" font-size="11" fill="#5c5c5c" text-anchor="start">s3-fast-list</text>
<circle cx="752.0" cy="122.0" r="5" fill="#4f8a5b"/>
<text x="766.0" y="126.0" font-family="'DejaVu Sans','Helvetica Neue',Helvetica,Arial,sans-serif" font-size="11" fill="#5c5c5c" text-anchor="start">swath</text>
<path d="M746.0,137.0 l11,11 M757.0,137.0 l-11,11" stroke="#b03a3a" stroke-width="2.4" fill="none"/>
<text x="766.0" y="146.0" font-family="'DejaVu Sans','Helvetica Neue',Helvetica,Arial,sans-serif" font-size="11" fill="#5c5c5c" text-anchor="start">no accepted result</text>
<text x="408.0" y="432.0" font-family="'DejaVu Sans','Helvetica Neue',Helvetica,Arial,sans-serif" font-size="11" fill="#5c5c5c" text-anchor="middle">fixture objects</text>
<text x="24.0" y="48.0" font-family="'DejaVu Sans','Helvetica Neue',Helvetica,Arial,sans-serif" font-size="11" fill="#5c5c5c" text-anchor="start">peak RSS (KiB)</text>
<text x="24.0" y="454.0" font-family="'DejaVu Sans','Helvetica Neue',Helvetica,Arial,sans-serif" font-size="11" fill="#5c5c5c" text-anchor="start">diagnostic; a cross marks an attempt with no accepted result — on the 66.4M-object NBM fixture s3-fast-list was killed at the container memory limit. Fixture object counts without a staged bundle summary are observed row counts; see fixtures.json.</text>
</svg>
